<svg xmlns="http://www.w3.org/2000/svg" width="256" height="100" viewBox="0 0 256 100"><path fill="#fff" d="M87.4 31.5l-2 1.1-3.3 2.1-.2.2a46.2 46.2 0 0 1-6.4 6.1l-3.8 2.8-1.1.4a2 2 0 0 1-2.8-2 11.1 11.1 0 0 1 .2-1.7c0-.2.1-.4.1-.7l-.4.5a23.7 23.7 0 0 1-5.5 5 14.2 14.2 0 0 1-3.5 1.7 3 3 0 0 1-3.8-2.2 10.2 10.2 0 0 1-.4-3.5l.3-2.3v-.3l-.3.4a67.5 67.5 0 0 1-5.6 6.4 13.4 13.4 0 0 1-3.8 2.8 3.2 3.2 0 0 1-4.3-1.3c0-.1-.1-.1-.2-.2l-.6.6-1 .7a1.6 1.6 0 0 1-2.4-.8c-.2-.6-.3-1.3-.5-2s-.1-.9-.2-1.5L34.6 45c-1.2 1.3-2.4 2.6-3.7 3.8a7 7 0 0 1-1.6 1.3 1.8 1.8 0 0 0-.5.7c-1.4 3.5-2.9 7.1-4.3 10.7l-5.1 12.6c-2 5-4.1 10-6.4 14.8a26.1 26.1 0 0 1-3.1 5.4l-1.5 1.4A2.9 2.9 0 0 1 4 95a9 9 0 0 1-1.2-3.6 30.9 30.9 0 0 1 .4-9.1 68.4 68.4 0 0 1 3.5-11.7 127.5 127.5 0 0 1 10-20.3 30.8 30.8 0 0 1 3.7-5.2 9.4 9.4 0 0 0 1-1c.1-.1.2-.3.1-.4a12.9 12.9 0 0 1-.2-4.8 3.6 3.6 0 0 1 .2-1.1 1.2 1.2 0 0 1 1.9-.8 1.1 1.1 0 0 1 .3 1.5 1.1 1.1 0 0 0-.3.8 9.3 9.3 0 0 0 .3 3.7c.1.2.1.4.2.6a1.1 1.1 0 0 0 1.3.5 7.9 7.9 0 0 0 2.5-1.5 18.3 18.3 0 0 0 3.3-3.5 9.1 9.1 0 0 0 1.1-2.2 6.1 6.1 0 0 0 .5-1.2h-.2l-1.8 1.5a6 6 0 0 0-.8.8.9.9 0 0 1-1.3.4 1 1 0 0 1-.5-1.3 3.6 3.6 0 0 1 1.3-1.7l4.9-3.8a1.8 1.8 0 0 0 .5-.7l2.1-4.4c.2-.4.1-.5-.2-.7l-5.3-3.2-1.7-.7-.7-.3a1 1 0 0 1-.4-1.1 1 1 0 0 1 .8-.8 2.7 2.7 0 0 1 2.1.5l3.8 2.1 2.2 1.3.6.3.4-.8c2.7-5.6 5.4-11.3 8.4-16.7a29.8 29.8 0 0 1 2-2.9 1.3 1.3 0 0 1 2.3.2 2.6 2.6 0 0 1 0 1.5c-.4 1.3-.8 2.6-1.3 3.8-2.3 5.6-4.9 11.1-7.6 16.5-.1.1-.1.2-.1.4l.5-.4 11.8-8.1 3.4-2a1.1 1.1 0 0 1 1.1-.1 1 1 0 0 1 .3 1.7l-1 .8c-4.7 2.9-9.2 6.1-13.7 9.2l-.4.3.4.2a75.5 75.5 0 0 0 11.4 4.6c.8.2.8.2 1.1-.6 1.2-2.4 2.4-4.9 3.7-7.2a149.1 149.1 0 0 1 8-12.6c1.4-2.1 2.8-4.1 4.3-6a1.8 1.8 0 0 1 1.1-.8A1 1 0 0 1 75.5 6a2.7 2.7 0 0 1-.3 1.2c-1.2 2-2.3 4.1-3.6 6-3.4 5.6-7 11.1-10.5 16.6l-1.5 2.1h.1c.8.7.9 1.6 0 2.2a2.2 2.2 0 0 1-1.1.5c-.2.1-.4.2-.4.4a20.9 20.9 0 0 0-1.3 6 8.7 8.7 0 0 0 .2 3.2c.2.5.4.6 1 .5a8.4 8.4 0 0 0 2.9-1.3 22.7 22.7 0 0 0 4.3-3.9c1.2-1.4 2.4-2.9 3.7-4.3a12 12 0 0 0 1.8-3.1A76.9 76.9 0 0 1 76.4 21a61.4 61.4 0 0 1 6.6-9.2 13.1 13.1 0 0 1 2.1-2 2.1 2.1 0 0 1 1-.4c1.2-.2 2 .8 1.7 2.1a15.4 15.4 0 0 1-.8 1.9 108.2 108.2 0 0 1-6.5 10.1l-8.2 11.3a8.7 8.7 0 0 0-.7 1.7l-1.4 4.7a2.8 2.8 0 0 1-.1.8l.9-.5 4.3-3.4a45.4 45.4 0 0 0 5.8-5.8 1.6 1.6 0 0 1 1.7-.8l.3-.2 3.2-1.8 1.4-.4a1.8 1.8 0 0 1 2.1 1.9 4.5 4.5 0 0 1-.4 2.3.9.9 0 0 1-.1.5l1.1-.3a4.2 4.2 0 0 1 3.7 1.1 6 6 0 0 1 .8.8 2.5 2.5 0 0 0 2.8.8l3.9-1.1 5.5-1.1 4.2-.6c3.4-.4 6.6-.1 9.4 1.8A9.7 9.7 0 0 1 125 41a9.9 9.9 0 0 1-.2 5.4 34.5 34.5 0 0 1-4.4 9.3 2.1 2.1 0 0 0-.4.6h.3a68.1 68.1 0 0 0 10.1 0 32.4 32.4 0 0 0 9.2-2.1 11.1 11.1 0 0 0 4.6-3.4 15.4 15.4 0 0 0 1.5-3.5c.1-.1.1-.3.2-.5a.9.9 0 0 1 1.2-.6 1 1 0 0 1 .8 1.1 19.7 19.7 0 0 1-.7 2.6 10.8 10.8 0 0 1-5.6 5.9 27 27 0 0 1-7.3 2.3 56.1 56.1 0 0 1-11.6.6l-4-.3a.5.5 0 0 0-.5.3 174 174 0 0 1-13.6 16c-3.5 3.6-7.1 7.1-10.9 10.4A65 65 0 0 1 79.9 94a46.2 46.2 0 0 1-11.6 3.7 47.4 47.4 0 0 1-11.3.6l-5.7-.3a56.6 56.6 0 0 1-8.2-1.6 48.6 48.6 0 0 1-9-3.3 22.4 22.4 0 0 1-6.6-4.4 14.8 14.8 0 0 1-4-6.3 12.8 12.8 0 0 1 .2-7.5 22.5 22.5 0 0 1 6.1-9.1 42.8 42.8 0 0 1 11.7-7.6 52.8 52.8 0 0 1 10-3.2 74 74 0 0 1 8-1.3 141.4 141.4 0 0 1 20.6-.6l9.9.5 8.8.7 8.4.9 6.9.7 2.8.2a.4.4 0 0 0 .5-.2 32.6 32.6 0 0 0 5-9.6 11.5 11.5 0 0 0 .5-4.1 6.9 6.9 0 0 0-2.4-4.2 9 9 0 0 0-5.9-2.4 25.3 25.3 0 0 0-4.7.3l-4.7.8L100 38l-2.7.6a4 4 0 0 1-3.6-1.1l-.8-.9a2.1 2.1 0 0 0-2.7-.6 11.9 11.9 0 0 0-2.5 1.3 1 1 0 0 1-.5.4 1.1 1.1 0 0 1-1.4-.2 1.2 1.2 0 0 1-.2-1.4 12.4 12.4 0 0 0 1-2 18 18 0 0 0 .8-2.1c.1-.1.1-.2.1-.4zm28.2 26.9h-.3l-3.2-.3-6.9-.7-6.3-.6-8.7-.8-9.7-.4a127.6 127.6 0 0 0-17.5.2 74.6 74.6 0 0 0-8.1 1 50.9 50.9 0 0 0-11.7 3.4 37.8 37.8 0 0 0-10.9 6.6 22.7 22.7 0 0 0-5.5 6.9 12.5 12.5 0 0 0-1.4 5 9.9 9.9 0 0 0 2.3 6.8 17.5 17.5 0 0 0 6.1 5A49.5 49.5 0 0 0 46.9 95a64.1 64.1 0 0 0 9.8 1.3 52.5 52.5 0 0 0 11.9-.7 43.1 43.1 0 0 0 13.5-5A73.6 73.6 0 0 0 95.2 81a168.7 168.7 0 0 0 19-20.6zm-89.4-7.5a4.5 4.5 0 0 1-2.2-2.5l-.9-2.1c-.2-.4-.3-.4-.6-.1l-1.3 1.6a66.5 66.5 0 0 0-4.8 7.7 116.4 116.4 0 0 0-8.9 19.7A44.4 44.4 0 0 0 5 87a16 16 0 0 0 .3 4.9 3.6 3.6 0 0 0 .8 1.9c.3.3.5.4.9.1a5.7 5.7 0 0 0 1.1-1.1 22.1 22.1 0 0 0 2.6-4.4l5-11.3 4.2-10.4c1.9-4.6 3.7-9.3 5.6-14zm12.3-5.4h.2c.2-.2.3-.5.5-.6l.9-.8a1.4 1.4 0 0 1 2.1.5 4.7 4.7 0 0 1 .5 1 .9.9 0 0 0 1.3.5l1.2-.6 2.5-2.2a71.9 71.9 0 0 0 7-8.5l.4-.6-.4-.2-3.9-1.3a91.9 91.9 0 0 1-8.5-3.7.6.6 0 0 0-.7.1l-1.7 1.2a3.9 3.9 0 0 0-.8 1 75.7 75.7 0 0 1-4.9 7.6 7.6 7.6 0 0 0-1.2 1.9l-1.8 4.1v.3l1.5-1.5a20.5 20.5 0 0 1 2.3-2 1.8 1.8 0 0 1 2.8.7 3 3 0 0 1 .4 1zm-9.8-.6l-3.1 1.6 1.1 1.9c.2.4.4.3.6-.1a16.7 16.7 0 0 0 .8-2zm49.5-22.3a77.8 77.8 0 0 0 4.7-7 57 57 0 0 0-4.7 7z"/><path fill="#fff" d="M119.2 19.8l2.5 1.2 10.7 4.7 6.6 2.8 1.4.8a1.3 1.3 0 0 1 .5.7.8.8 0 0 1-.2 1 1.1 1.1 0 0 1-1.2.2l-2.5-1-12.8-5.5c-2.3-1-4.6-2.2-6.8-3.3a.6.6 0 0 0-.7.1l-10 7.1-1 .8c-.3.3-.7.6-.6 1.1s-.4.9-.9.9a1.3 1.3 0 0 1-1.3-.8 1.4 1.4 0 0 1 .2-1.3 11.2 11.2 0 0 1 1.8-2 97.8 97.8 0 0 1 9.1-6.8l.7-.5-.9-.6a41.6 41.6 0 0 1-8.4-7.3l-.6-.8a1.2 1.2 0 0 1 .2-1.5 1 1 0 0 1 1.6.2 3.6 3.6 0 0 0 1 1.4 42.5 42.5 0 0 0 8.9 6.9c.3.2.5.2.7 0L132 8.5l3.9-2.4.9-.2a.9.9 0 0 1 .6 1.5 1.2 1.2 0 0 1-.5.5l-7.7 5.2-9.6 6.4zM168 44.1h-6.7l-1.2 4.2h-5.4l7-20.2h5.9l7.1 20.2h-5.4zm-1.3-4.3l-2-6.9-2.1 6.9zm19.3 8.5l-4.3-7.9v7.9h-5V28.1h6.7c4.9 0 7.5 2.7 7.5 6.4a5.7 5.7 0 0 1-3.9 5.7l5 8.1zm-4.3-10.7h1c2 0 3.1-1.1 3.1-2.7s-1.1-2.7-3.1-2.7h-1zm20.9-4.7v15.4h-5.1V32.9h-5l.7-4.8h13.7l.7 4.8zm26.2 15.8l-2.3-2.2a9.9 9.9 0 0 1-6.1 2.2c-3.9 0-6.6-2.5-6.6-5.8s1.6-4.2 3.6-5.4a6.6 6.6 0 0 1-1.9-4.4c0-3.1 2.7-5.4 6.1-5.4s6.2 2.3 6.2 5.3-1.9 4.2-4 5.3l2.3 2.1a17.1 17.1 0 0 0 1.4-2.7l4.1 1.4a17.6 17.6 0 0 1-2.3 4.3l2.4 2.3zm-5.4-5.2l-3.3-3.2a2.7 2.7 0 0 0-1.5 2.2 2.1 2.1 0 0 0 2.2 2 5 5 0 0 0 2.6-1zm-3.5-10.3a4.1 4.1 0 0 0 1.2 2.4c1.3-.7 2.2-1.4 2.2-2.5a1.6 1.6 0 0 0-1.7-1.7 1.8 1.8 0 0 0-1.7 1.8zm-63.9 20h6.5c6 0 10.5 4.3 10.5 10.1s-4.5 10.1-10.5 10.1H156zm6.3 15.4c3.3 0 5.5-2.1 5.5-5.3a5.2 5.2 0 0 0-5.5-5.4h-1.2v10.7zm25.9.3l-.7 4.5h-12.1V53.2h11.9l.6 4.5h-7.4v3.2h6v4.5h-6v3.5zm1.9 2.9l.7-4.7a11.1 11.1 0 0 0 6 2.3c1.6 0 2.2-.8 2.2-1.7s-.4-1.5-2.2-2.1l-1.2-.4c-3.6-1.2-5-3.5-5-6.2s2.7-6.2 6.9-6.2a13.3 13.3 0 0 1 5.8 1.4l-.7 4.6a11.6 11.6 0 0 0-5.2-1.7c-1.3 0-2 .7-2 1.6s.6 1.5 2.3 2l1.2.4c3.7 1.3 5.1 3.7 5.1 6.3s-2.2 6.4-7.1 6.4a13 13 0 0 1-6.8-2zm21.9 1.6h-5.1V53.2h5.1zm20.4-12.2v10.6a13.3 13.3 0 0 1-7.1 2 10.5 10.5 0 0 1-10.7-10.5 10.6 10.6 0 0 1 10.9-10.5 12.1 12.1 0 0 1 5.8 1.3l-.7 4.8a10.2 10.2 0 0 0-4.9-1.4 5.8 5.8 0 0 0-6 5.8 6 6 0 0 0 8.1 5.3v-3.1H224l.6-4.3zm21.5-8v20.2h-4.8l-8.6-11.6v11.6h-5V53.2h4.8l8.5 11.5V53.2z"/></svg>