<svg viewBox="0 0 444.2 470.62" xmlns="http://www.w3.org/2000/svg"><path d="m270.42 339.58c18.78 16.27 28.2 47.26 12.35 68.43-7.39 17.2 4.56 14-8.07 39.14-3.42-9.59-9.54-14.83-19.87-11.54-3.36 1.09-4-1.51-4.42-3.87-2-11.61 3.69-20.62 9.77-29.67 15.55-22.07 12.61-37.66 10.24-62.49z" fill="#fff"/><path d="m430 304.92c.62 5.24-2.48 8.68-4.35 13.46-1.44-5.96 1.99-9.28 4.35-13.46z" fill="#fb6660"/><path d="m419.79 320c-1.48.52-1.46-1.17-1.57-2.13-.31-3 1.78-4.77 4-6.19.38-.24 1.85.1 1.5 1.14-.82 2.52 1.1 6.42-3.93 7.18z" fill="#fb6660"/><path d="m418.46 308c-2.34 2.65-4.14 4.68-6.3 7.1-.37-4.52 1.69-6.34 6.3-7.1z" fill="#fb6660"/><path d="m414.2 321.41c.44-.94.86-1.9 1.62-3.59.63 2.35 1.11 4.53-1.62 3.59z" fill="#fb6660"/><path d="m405.12 321.92c2-4.06-1.55-9.62 5.21-10.86.75 4.5-.71 7.94-5.21 10.86z" fill="#fb6660"/><path d="m398.38 219.7c-4.08-2.43-3.81-5.63-3.41-9.55a13.74 13.74 0 0 1 3.41 9.55z" fill="#20bca0"/><path d="m392.58 213c-1.55-2.66-4.09-4.69-2.63-8.13 3.25.96 4.23 3.77 2.63 8.13z" fill="#20bca0"/><path d="m382.73 134.77c2.39 3.94 4.06 37.72-4.29 24.79 1.25-8.28 2.82-16.56 4.29-24.79z" fill="#fb6660"/><path d="m394.06 234.83c2.27 5 1 7.84-1.73 12 .67-4.45 1.07-7.39 1.73-12z" fill="#20bca0"/><path d="m387.35 252.16c1.21-7.35 4-13.94 4.45-21.55 2.42 2.68-1.28 19.45-4.45 21.55z" fill="#20bca0"/><path d="m391.11 231.62c-2.21-4-2.1-7.91-6-10.5 6.01-.55 6.75 5.31 6 10.5z" fill="#20bca0"/><path d="m404.19 314.16c.93 9.47-1.64 14.56-7.06 14.13 1.7-12.21 1.7-12.21 7.06-14.13z" fill="#fb6660"/><path d="m367 129.93c-4.41-17.33 1.16-32.05 2.17-48.39 10.76 15.63-.25 30.38-2.17 48.39z" fill="#fb6660"/><path d="m375.58 156.76c-1.43-.64-3.95-1.75-3.67-3.77 2.08-11.76 3.75-24.56 8.63-35.29 4.9 11.92-1.85 24.28-3.62 36.2-.24 1.1-.19 3.37-1.34 2.86z" fill="#fb6660"/><path d="m380.82 254.62c-.31-3.31 2.88-4.22 5.52-6.91-1 3.11.36 6-2.92 7-.86.29-2.5.92-2.6-.09z" fill="#20bca0"/><path d="m364 72.24c8.38 8.07-.3 28.92-1.13 39.72-1.76-13.11.68-26.03 1.13-39.72z" fill="#fb6660"/><path d="m393.29 330.35c-1 .71-1.74.75-1.64-1 .26-4.39-.78-9.26 5.52-11.69-2.17 4.34.74 9.52-3.88 12.69z" fill="#fb6660"/><path d="m368.47 152.16c-2.06-.42-.78-1.67-.8-2.57-.23-17.36 3.84-33.78 8-50.52 2.82 5.36 4.28 10.25 3 15.5-2.91 11.8-6.58 23.38-8.15 35.49-.12 1.01-.08 2.51-2.05 2.1z" fill="#fb6660"/><path d="m389.81 332.53c-1.4-3.6-1.39-5.75.38-7.83-.1 2.15-.19 4.3-.38 7.83z" fill="#fb6660"/><path d="m366.13 358.86c-2 .29-1.52-2-1.73-3.27-2.82-9.93-4-19.76-.07-29.73 7.06-5.4 13.75-11.39 20.61-17.46 1.72-1.95 3.88 0 1.93 1.89-12.78 10.9-16.47 12.11-19.53 29.57-1.8 5.17-.54 10.36-.59 15.55 0 1.25.63 3.27-.62 3.45z" fill="#182a3d"/><path d="m389.66 357.49c-6.32-3.9-1.92-10-3.57-14.59a32.1 32.1 0 0 1 3.57 14.59z" fill="#fb6660"/><path d="m360 102.37c-6.25-15.05-5.13-29.54-5.11-44.28 12.91 11.59 4.18 28.31 5.11 44.28z" fill="#fb6660"/><path d="m379.17 252c-.4 2.67-.9 4.38-3.72 3.2.46-1.9 1.98-2.28 3.72-3.2z" fill="#20bca0"/><path d="m384.08 354c-6.94-2.44-2.92-12.08-3.55-17.7 1.89-3.87 3.29 2.45 3.52 4.09-.32 1.83 1.82 14.04.03 13.61z" fill="#fb6660"/><path d="m353.15 83.82c-8.19-11.32-6-24.25-6.85-38.48 10.54 12.66 4.7 26.25 6.85 38.48z" fill="#fb6660"/><path d="m378.78 337.73c-.2 4.58-.33 7.5-.49 11.28-3.38-3.86-1.54-6.74.49-11.28z" fill="#fb6660"/><path d="m387.81 437.5a116.87 116.87 0 0 0 -9.95-24.35c-1.11-1.92 2.5-4.62 2.26-7.58.07-1.49 1.21-8.68 3-8.13 2.67.38 6.36 1.62 7 4.18 3.05 12.08.88 24.28-2.31 35.88z" fill="#fff"/><path d="m339.88 47.09c-.12-1.91-2.24-6.79-.33-7.64 8.54.66 4.5 22 5.08 28.31-1-2.48-3.26-3.94-2.79-7.54.56-4.22-1.19-8.73-1.96-13.13z" fill="#fb6660"/><path d="m334.69 46.52c.78-4.11-2.41-8.52-1.41-12.76 5.11 1.82 5.12 17.26 6.25 22.53-1.83-3.09-5.42-5.03-4.84-9.77z" fill="#fb6660"/><path d="m332.5 45.1c-6-3.82-6.31-10.3-8.16-16.41 5.22.91 9.39 9.59 8.16 16.41z" fill="#fb6660"/><path d="m344.05 158.93c-2.29 1.93-2.91-20.5-3.89-24.07a79.21 79.21 0 0 1 7.84 20.47c.45 2.29-2.38 3.06-3.95 3.6z" fill="#fb6660"/><path d="m338.1 162.57c-3.29 1.92-1.32-29.14-1.06-31.86 3.22 1.49.62 3.95 1 5.83 1.39 7.41 2.19 14.91 3.34 22.37.43 2.77-1.69 3.44-3.28 3.66z" fill="#fb6660"/><path d="m331.84 167c.46-5.79-.47-11.5 2.22-17.24 2.55 7.67 1.62 15.82-2.22 17.24z" fill="#fb6660"/><path d="m317.82 25.84c3.86 2.33 4.89 4.52 4.85 7.46-1.3-1.99-2.59-3.97-4.85-7.46z" fill="#fb6660"/><path d="m329.67 163.32c1.57 2.87 1 6.29-1.25 7.25-.57-2.57.44-4.87 1.25-7.25z" fill="#fb6660"/><path d="m322.58 330c8.74 8.46 2.25 19.08-3.43 9.55-1.5-3.55 1.85-6.26 3.43-9.55z" fill="#fb6660"/><path d="m337.64 462.25c-8.48 7.06-11.88-3.57-12.85-10.84-.51-32.71 14.06-35.16 20.93-2.48 2.1 6.07-4.05 9.75-8.08 13.32z" fill="#fff"/><path d="m317.15 332.67c-3-1 .16-3.46.42-5.25.72-4.78 1.79-9.51 3.13-16.29 1.8 18.92 10.79 10.41 6.76 22.5-2.94-2.18-2-5.69-4.81-7.47-2.22 1.67-2.12 7.35-5.5 6.51z" fill="#fb6660"/><path d="m319.15 339.59c5.68 9.53 12.17-1.09 3.43-9.55-1.58 3.25-4.93 5.96-3.43 9.55zm-2-6.92c3.38.84 3.28-4.84 5.5-6.51 2.8 1.78 1.87 5.29 4.81 7.47 4-12.09-5-3.58-6.76-22.5-1.34 6.78-2.41 11.51-3.13 16.29-.26 1.79-3.39 4.26-.42 5.25zm-4.75 13.92c-6 9.18-25.89 4-25.7-7.07-8.89-8.15-2.41-15.15.93-22.51 3.79-10.9 9.44-22.15 10.69-33.49-3.59-7.12 1.67-13.33 2-20 3.61-5.82 9.82 12.46 14.07-1.79 1.15-2 2.45-2.44 3.69-1.06a43.68 43.68 0 0 0 7.27 6.12c5.11 3.61 2.44 9.22 3.58 13.85 1.82 20.88 21.59 25.66 18.35 40.84-1.92 10-4.24 26.18-18.57 19.8-1.18 1.92-1.61 4.23-.45 7.57-6.37-4.22-10.45-10.01-15.86-2.26z" fill="#182a3d"/><path d="m292.89 275.29c2.35 9.46-1.28 19.31-6.88 26.76-.3-.55-.59-1.07-.65-1.19 1.73-11.43 11-12.93 3.6-29.07-2.43-5 5.75-12.23 7.83-17 .43-.66 1.23-1.46 2.07-.56.72.74 0 1.37-.56 1.93-3.48 3.23-5 7.68-7.25 11.68-1.51 2.78 1.28 4.94 1.84 7.45z" fill="#182a3d"/><path d="m269.13 243.24c-2.87-4.75-3.12-6.37-2.18-14.67 1.88 5.16 2.05 9.53 2.18 14.67z" fill="#20bca0"/><path d="m267.91 276.6c.26-3.09.46-5.27.63-7.43.62 2.24 1.81 4.51-.63 7.43z" fill="#20bca0"/><path d="m264.91 235.34c-2.66-4.16-3.89-7.93-2.89-13.06 3.45 4.05 3.57 8.1 2.89 13.06z" fill="#20bca0"/><path d="m261.54 287.81c.72-12.33 1.44-24.52 2.19-37 6.19 5.57 4.13 34.26-2.19 37z" fill="#20bca0"/><path d="m260.2 225.62-4.33-6.62c3.89.92 3.94 3.22 4.33 6.62z" fill="#20bca0"/><path d="m260.47 264.82c.67-6.94-2-13.89-2-21 4.41 1.77 4.26 11.32 3.28 21.15z" fill="#20bca0"/><path d="m259.49 289.3c-1.28.66-3 2.08-3.79 1.69-1.36-.67-.25-2.53 0-3.77 1.57-7.48 4.08-14.85 4.75-22.4l1.26.13c-.84 8.44-2.29 17.09-2 21.22-.06 1.02 1.46 2.29-.22 3.13z" fill="#20bca0"/><path d="m250.15 293.84c.71-5.24.33-10.61 5.11-14.07.74 4.01-2.5 13.6-5.11 14.07z" fill="#20bca0"/><path d="m249.07 285.67c1.51 4.51-1.15 10.67-4.57 10.72 1.03-3.76 2.03-7.39 4.57-10.72z" fill="#20bca0"/><path d="m243.91 276.13c-.84 4.12-3.3 7.32-6.2 11 .58-5.13 3.98-7.68 6.2-11z" fill="#20bca0"/><path d="m230.59 350.73c21.52-2.52 15.87-16.22 26.67 10.11-.07.16-.34.78-.58 1.4-14-15.32-27.23-5.77-29.05-10.83.02-2.18 1.94-.56 2.96-.68z" fill="#182a3d"/><path d="m261 457.18c.86 7.94-.5 9.73-5.91 7.36 1.85-2.69 3.21-5.6 5.91-7.36z" fill="#fb6660"/><path d="m244.25 290.14c.23 5.2-2.9 9.43-6.87 9.18.44-4.59 2.94-7.42 6.87-9.18z" fill="#20bca0"/><path d="m237.16 294c-.77 4-1 7.58-6.26 7.75 1.98-2.67 1.27-7.01 6.26-7.75z" fill="#20bca0"/><path d="m241 376.3c-2 2.24-9.74 13.83-12.6 10.88-1.08-.94-1.05-1.68-.23-2.79 3.21-4 5.85-9 9.4-12.56 2.54-.67 3.21.73 4.13 1.9s-.16 1.72-.7 2.57z" fill="#fb6660"/><path d="m245.3 450.11c1.13-2.52 4.75-.28 8-1-3.71 5.25.78 9.39 0 13.86-24.47-3.67-21.45-7.21-17.85-20.34 7.55 2.46 2.7 10.56 6.37 15.26 2.64-2.35 2.44-5.4 3.48-7.78z" fill="#fff"/><path d="m214.86 305.6c1.13-6.82 8.63-15.84 12.67-15.37-.61 7.3-7.41 15.65-12.67 15.37z" fill="#20bca0"/><path d="m245.84 390.49c-1 4.45-3.41 8-6.89 12-1.62-6.88 4.32-8.49 6.89-12z" fill="#fb6660"/><path d="m234.52 371c-.4 4.28-8.92 13.17-13.75 14 5.6-4.24 6.34-12.09 13.75-14z" fill="#fb6660"/><path d="m237.32 397c-.71-3.09-.71-3.09-2.31-3.8 3.27-3.56 6.52-7.13 9.9-10.81 2.92 7.73-5.86 8.49-7.59 14.61z" fill="#fb6660"/><path d="m236.83 283.12c.17 7.66-8.7 21.38-13.8 20.66 3.37-7.78 6.28-15.78 13.8-20.66z" fill="#20bca0"/><path d="m234.3 390.69c-.48.45-.86 1.2-1.67.4-2-2.18 9.2-11.5 10.79-14.37 1.84 2 1.22 3.58-.66 5.34-2.94 2.75-5.64 5.74-8.46 8.63z" fill="#fb6660"/><path d="m219.7 292.65c-1.16 5.91-7.75 14.63-10.86 14.5-.16-6.15 4.22-12.15 10.86-14.5z" fill="#20bca0"/><path d="m226.65 374.13-4.05 6-.69-.49c1.34-2 2.7-4 4.07-6 .23.2.44.36.67.49z" fill="#fb6660"/><path d="m217 440.47c1.12 3.76 3.63 6.83 7.27 7.92.15-4.31 4.12-4.64 6.8-6.59 1.21 1.32-.23 3.17-.14 4.75-.49 5.7-3.57 7-8.67 5.37-3.23-.88-8.24.46-9.69-3.55-1.19-3.73 1.73-5.59 4.43-7.9z" fill="#fff"/><path d="m215.25 319c-.05-1.21 1.42-.58 3.92-1.06a103.35 103.35 0 0 0 34.83-7.94c5-2.14 7.65-9.06 13.87-8.71-1.93 13.48-14.13 11-22.49 14.2-8.68 4-18.38 3.5-27.74 4.32-.88.06-2.35.5-2.39-.81z" fill="#182a3d"/><path d="m213.17 418.25c2.63-4.55 5.7-32.8 12.56-27.39 4 3 14 8.72 10.46 14.73-10.76 11.45-1.67 20.33-9.31 30.64-2.87 4.11-9.31-.21-8.59-4.78a15.25 15.25 0 0 0 -.21-3.94c-.26-1.16 1.17-3.06-.84-3.27-.91.57-2.21 4.5-2.16 6.48-4.28-3.95-3.17-8.13-1.91-12.47z" fill="#fff"/><path d="m210.71 297c-1.4 3.48-2.71 6.85-4.12 10.18-6.06 2.82-.98-10.47 4.12-10.18z" fill="#20bca0"/><path d="m205.2 297.33c-1.67 2.9-1 7.18-5 9.37-.38-4.8 1.28-7.7 5-9.37z" fill="#20bca0"/><path d="m395 210.15c-.4 3.92-.67 7.12 3.41 9.55a13.74 13.74 0 0 0 -3.41-9.55zm-2.42 2.85c1.6-4.32.62-7.13-2.63-8.13-1.46 3.4 1.05 5.43 2.63 8.13zm1.48 21.87c-.66 4.61-1.08 7.55-1.73 12 2.67-4.2 4-7.01 1.73-12.04zm-8.95-13.71c3.9 2.59 3.79 6.52 6 10.5.75-5.23.01-11.09-6-10.54zm6.69 9.49c-.4 7.61-3.24 14.2-4.45 21.55 3.17-2.14 6.87-18.91 4.45-21.59zm-11 24c.1 1 1.74.39 2.6.13 3.28-1 2-3.93 2.92-7-2.62 2.62-5.81 3.53-5.5 6.84zm-5.37.55c2.82 1.18 3.32-.53 3.72-3.2-1.72.92-3.24 1.3-3.7 3.17zm-108.43-26.63c-.94 8.3-.69 9.92 2.18 14.67-.18-5.14-.35-9.51-2.18-14.67zm-5-6.29c-1 5.13.23 8.9 2.89 13.06.7-4.96.58-9.01-2.89-13.06zm6.52 46.89c-.17 2.16-.37 4.34-.63 7.43 2.46-2.92 1.27-5.19.65-7.43zm-8.34-43.55c-.39-3.4-.44-5.7-4.33-6.61zm3.53 25.15c-.75 12.52-1.47 24.71-2.19 37 6.34-2.7 8.4-31.39 2.21-37zm-8 36.45c-.27 1.24-1.38 3.1 0 3.77.79.39 2.51-1 3.79-1.69 1.68-.84.16-2.11.25-3.13-.3-4.13 1.15-12.78 2-21.22 1-9.83 1.13-19.38-3.28-21.15 0 7.13 2.69 14.08 2 21-.67 7.57-3.18 14.94-4.75 22.42zm-.46-7.45c-4.78 3.46-4.4 8.83-5.11 14.07 2.62-.47 5.86-10.06 5.12-14.07zm-47.89-90.41c9.48-14 38.54 9.7 38.71-20 0-1.5-.43-3.13 1.22-4.14 10 28.17 27.81 27 26.88 38 0 5.67-2.38 6.35 2.57 11.24-2.26 9.05 6.76 7.45 10.51 10.6 2.28 1.92 7.8-5.36 6.8-9.3-.06-2.13-4.49-12.08-2.74-12.46 4.79-.66 4.12 7.2 4.72 10.32 1.2 9.6 12.18 7.94 16.81 2.59a12 12 0 0 0 -4-9.78c-7.62-6 7.92-18.93 2.05-31.08 1.42-7.54 11.64 16.16 5.16 22.7-3.19 5.61-.61 12.06.14 18.26 1.92 11.31-4.08 25 5.47 34.06-3.05-20-2.48-44 13-58.85 3.05-1.79 20.29-14.78 21.94-11.77 1 1-4 4.56-5 6.13 27.16-4.29 39 5.18 52.48 27.06 9.22 10.09-1.67 19.33-2.2 30.06-.4 8.77-6.63 13.78-13.06 18.05-2 1.33-5.8 0-8.92.47-19.55 5.79-26.43 6.7-46.57 1.73 7.31 12.42 18.72 14.21 31.88 12.4-6.08 1.25-10.16 5.71-15.82 6.66-8.08 1.34-6.81-8.36-12.86-9.59-2.54 21.22 19.11 33.34 22.68 53.09 1.17 4.5-6 9.83-8.31 14.09-.78 1-.62 3.33-2.56 2.6-1.66-.62-1.69-2.58-1.37-4.18 2.33-14.25 9.25-25-3.11-36.68-15.55-15.64-4.86-28.41-13.86-37.22-26.87-19.62-9.86-50.16-19.26-43.88-2.91 1.45-5.87 2.87-8.79 4.28-6.91 1.58 7.5 30.26 4.39 33.17-2.72-7.45-5.57-14.82-8.06-22.34-1.29-3.91-.7-9.29-7-8.67-12.07 1.19-14.18 2.74-12.94 12.09 0 21.26 6.86 57-21 62.37-35.94 6.41-70.78 26.55-96.51-10-8.93-6.77 1.31-36.68 1.86-47.8.88-4.53 6.15-5.74 9.44-8.43 18.74-14.22 40.76-23.42 63.44-29.2 5.48-1.83 9.53 2 14.21 3.34 5.2 1.48 10.39 3 16.21 4.69-4.36-9.28-14.63-9-19.46-17-4.1-6.61-10.43-8.91-17.68-8.13-7 .8-13.78-3.91-21.48.45zm41.7 96.31c-2.54 3.32-3.54 7-4.57 10.72 3.43-.05 6.09-6.21 4.58-10.72zm-5.16-9.54c-2.22 3.32-5.62 5.91-6.2 11 2.91-3.68 5.37-6.88 6.21-11zm.34 14c-3.93 1.76-6.43 4.59-6.87 9.18 3.98.26 7.11-3.97 6.88-9.17zm-7.09 3.9c-5 .7-4.28 5-6.26 7.75 5.26-.16 5.5-3.78 6.27-7.78zm-.33-10.92c-7.51 4.89-10.42 12.89-13.82 20.67 5.13.72 14-13 13.83-20.66zm-22 22.48c5.26.28 12.06-8.07 12.67-15.37-4-.46-11.49 8.56-12.63 15.38zm4.84-13c-6.64 2.38-11 8.32-10.86 14.5 3.2.19 9.74-8.53 10.9-14.44zm-9 4.39c-5.1-.33-10.18 12.93-4.12 10.18 1.46-3.27 2.77-6.64 4.17-10.16zm-5.51.29c-3.72 1.65-5.38 4.57-5 9.37 4.05-2.13 3.38-6.41 5.05-9.31zm-4.7.52c-2.58 2.43-3.58 4.36-3.07 8.32 1.26-3.25 2.02-5.28 3.12-8.26zm-13.95 2.25c3.25 2.21 4.85 4.5 5.76-1-2.13 2.28-3.49.96-5.71 1.06zm9.92-.12c-3.16-1.56-4.68 3.85-2.68 3.92 2.79-.02 2.03-2.41 2.73-3.84z" fill="#182a3d"/><path d="m197.43 306.17c-.51-4 .49-5.89 3.07-8.32-1.1 2.98-1.86 5.01-3.07 8.32z" fill="#20bca0"/><path d="m193.79 303.9c-2-.07-.48-5.48 2.68-3.92-.7 1.45.06 3.84-2.68 3.92z" fill="#20bca0"/><path d="m186.55 300.1c2.22-.1 3.58 1.22 5.76-1-.91 5.5-2.51 3.21-5.76 1z" fill="#20bca0"/><path d="m156.79 126.8a64.4 64.4 0 0 0 10 12.31c5.69 5.82 10.53 10.72 12.27 24-4.54-6.6-9.69-12.81-14.08-19.48a63.51 63.51 0 0 1 -8.19-16.83z" fill="#fb6660"/><path d="m152.44 115.22c5.47 6.94 11.26 13 15.47 20.21a48.43 48.43 0 0 1 2.64 5.18 9.52 9.52 0 0 1 -2.55-2.11c-5.16-5.42-14.9-19.34-15.56-23.28z" fill="#fb6660"/><path d="m190.44 378.38c-4.29.81-4.54-3.82-7-5.52-.28-.21 1.87-1.23 2.62-.54 7.54 6.12 13.74-3.3 20.32-6-4.21 5.68-8.8 10.68-15.94 12.06z" fill="#182a3d"/><path d="m161.37 156c-1.71-2.19.9-3.46 1.47-.67a101.72 101.72 0 0 0 10.9 19.77l-.77.39c-4.52-6.09-8.89-12.26-11.6-19.49z" fill="#182a3d"/><path d="m178.87 323.69a35.53 35.53 0 0 0 14.43-4.08c3.22-2.61 7.74-3.21 13.33-.49-4.16.14-7.52-.72-9.54.55-4.38 2.73-8.26 5.57-14 5.44-1.39 0-2.79 0-4.19.1z" fill="#182a3d"/><path d="m165 194.17c-3.87 2.47-7.47 4.24-10.36-1.44-1.75-3.42-4.41-6.39-5.87-9.89a4.94 4.94 0 0 1 .53-4.22c.53-1.06 1.22-2.1 1.72-3.07 7.05-12.17 8.9-23.91 8-38.25q2.42 3.66 4.71 7.17c3.81 5.8 7.42 11.32 11.14 16.78 3 6.84 18.78 17.43 8.18 23.7a53.65 53.65 0 0 1 -9.3-9.88 101.72 101.72 0 0 1 -10.9-19.77c-.57-2.79-3.18-1.52-1.47.67 2.71 7.26 7.08 13.43 11.6 19.49 2.71 3.64 5.46 7.25 7.95 11a5.33 5.33 0 0 1 -2.47.1c-8.25 5.34-9.59-3-12.77-6.82a29 29 0 0 1 -6.34-12c-.15-.64-.49-1.38-1.23-.94.2 7.43 6.86 13.92 11 19.87.79 1 3.66 1.64 1.51 3.73-6.87 6.74-11.89-14.38-16.32-14.13-1 .77.36 1.5.84 2.17q5.07 7.16 10.16 14.34c.46.7.2 1.03-.31 1.39z" fill="#fb6660"/><path d="m179.61 394c1.88.14 3.61.3 5.9.48-2.51 1.93-4.45 3.03-5.9-.48z" fill="#fb6660"/><path d="m168.93 392.13c4 1.68 8.31 1.36 10.4 5.41-3.69 3.26-6.42 1.98-10.4-5.41z" fill="#fb6660"/><path d="m131.76 95.85c-1.95-1.18-.29-3.84 1.5-1.85 15.53 10.91 26.78 25.07 35.81 40.76l-1.16.67c-4.21-7.2-10-13.27-15.47-20.21.66 3.94 10.4 17.86 15.59 23.28l-1.23.61a64.4 64.4 0 0 1 -10-12.31 63.51 63.51 0 0 0 8.2 16.83l-1.27.84q-2.3-3.47-4.73-7.17c.87 14.34-1 26.08-8 38.25-.5 1-1.19 2-1.72 3.07l-.68-.33c14.05-28.78 9.71-58.42-16.84-82.44z" fill="#182a3d"/><path d="m162.43 392.39c2.82-.45 15.15 9.27 7.06 9.39-1.98-3.44-5.93-5.37-7.06-9.39z" fill="#fb6660"/><path d="m146 210c3.2-3.71 4.25 4.35 6.46 3 1.59-1.28-5-4.7-1.38-7.62 2.17-1.92 2.34.87 3.47 1.42.62.31 1.11 1.43 1.92.71s-.44-1.09-.64-1.66c-.32-1-2.19-1.4-1.28-2.71 1.07-2.26 3.68-.59 5.32-1.77.57-.58-.24-.63-.52-1-.75-.88.4-1.55.71-1.41 4.75 1.76 6.5-4.36 10.79-5.76-6.12 3.11-16.71 27.75-21.78 24.36-1.54-2.26-5.3-4.12-3.07-7.56z" fill="#fb6660"/><path d="m150 219.34c-.31 2.32-3.3 5.2-5.31 2.93-1.59-3-4.37-5.82-1.13-9.68 2.21 2.3 2.71 6.03 6.44 6.75z" fill="#fb6660"/><path d="m142 201.61c-1.6-2.78-2.37-5.58 0-8.08 2-2.33 2.35 5.58 7.61 6.29-6.74-8.27-6.93-10-1.88-15.76.3 3.24 12.19 15.25 7.75 15.61-4.68.03-9.56 7.12-13.48 1.94z" fill="#fb6660"/><path d="m140.4 219.33c4.14 4.76 1.55 6.72-2.77 8.48.97-2.96 1.81-5.56 2.77-8.48z" fill="#fb6660"/><path d="m134.1 212.33c-2.13-1.68-9.56-19.25-10.86-25.22 11.44 4.74 10.11 15.33 10.86 25.22z" fill="#fb6660"/><path d="m120.56 181.75c-2.35-4.11-6.69-19.69-9-18.77-1.41.61-.13 2 .31 2.89 8.24 16.75 14.22 34.43 21.47 51.6 2.08 4.9-2.17 9.9-2.83 15.26-8.82-24.27-18-48.58-25.71-73.19 11.05 1.37 14.83 6.46 15.76 22.21z" fill="#fb6660"/><path d="m286.7 339.52c-.19 11.1 19.73 16.25 25.7 7.07 5.41-7.75 9.49-2 15.9 2.22-1.16-3.34-.73-5.65.45-7.57 14.33 6.38 16.65-9.77 18.57-19.8 3.24-15.18-16.53-20-18.35-40.84-1.14-4.63 1.53-10.24-3.58-13.85a43.68 43.68 0 0 1 -7.27-6.12c-1.24-1.38-2.54-.92-3.69 1.06-4.25 14.25-10.46-4-14.07 1.79-.37 6.71-5.63 12.92-2 20-1.25 11.34-6.9 22.59-10.69 33.49-3.38 7.4-9.86 14.4-.97 22.55zm-.7-37.47c5.6-7.45 9.23-17.3 6.88-26.76-.56-2.51-3.35-4.67-1.84-7.4 2.21-4 3.77-8.45 7.25-11.68.59-.56 1.28-1.19.56-1.93-.84-.9-1.64-.1-2.07.56-2.08 4.72-10.26 12-7.83 17 7.38 16.14-1.87 17.64-3.6 29.07.07.09.36.59.65 1.14zm-55.42 48.68c-1 .12-2.94-1.5-3 .68 1.82 5.06 15-4.49 29.05 10.83.24-.62.51-1.24.58-1.4-10.75-26.33-5.1-12.63-26.62-10.11zm-69.74-59.26c25.73 36.52 60.57 16.38 96.51 10 27.84-5.36 21-41.11 21-62.37-1.24-9.35.87-10.9 12.94-12.09 6.34-.62 5.75 4.76 7 8.67 2.49 7.52 5.34 14.89 8.06 22.34 3.11-2.91-11.3-31.59-4.39-33.17 2.92-1.41 5.88-2.83 8.79-4.28 9.4-6.28-7.61 24.26 19.26 43.88 9 8.81-1.73 21.54 13.9 37.23 12.36 11.7 5.44 22.43 3.11 36.68-.32 1.6-.29 3.56 1.37 4.18 1.94.73 1.78-1.63 2.56-2.6 2.28-4.26 9.48-9.59 8.31-14.09-3.57-19.75-25.22-31.87-22.68-53.09 6.05 1.23 4.78 10.93 12.86 9.59 5.66-.95 9.74-5.41 15.82-6.66-13.16 1.81-24.57 0-31.88-12.4 20.14 5 27 4.06 46.57-1.73 3.12-.46 6.91.86 8.92-.47 6.43-4.27 12.66-9.28 13.06-18.05.53-10.73 11.42-20 2.2-30.06-13.47-21.88-25.32-31.35-52.48-27.06 1-1.57 6-5.15 5-6.13-1.65-3-18.89 10-21.94 11.77-15.51 14.86-16.08 38.83-13 58.85-9.55-9-3.55-22.75-5.47-34.06-.75-6.2-3.33-12.65-.14-18.26 6.48-6.54-3.74-30.24-5.16-22.7 5.87 12.15-9.67 25.11-2.05 31.08a12 12 0 0 1 4 9.78c-4.63 5.35-15.61 7-16.81-2.59-.6-3.12.07-11-4.72-10.32-1.75.38 2.68 10.33 2.74 12.46 1 3.94-4.52 11.22-6.8 9.3-3.75-3.15-12.77-1.55-10.51-10.6-4.95-4.89-2.56-5.57-2.57-11.24.93-10.91-16.88-9.79-26.88-38-1.65 1-1.21 2.64-1.22 4.14-.17 29.65-29.23 6-38.71 20 7.7-4.35 14.48.35 21.5-.41 7.25-.78 13.58 1.52 17.68 8.13 4.83 8 15.1 7.71 19.46 17-5.82-1.69-11-3.21-16.21-4.69-4.68-1.34-8.73-5.17-14.21-3.34-22.68 5.78-44.7 15-63.44 29.2-3.29 2.69-8.56 3.9-9.44 8.43-.59 11.07-10.83 40.98-1.9 47.75zm45.53 74.83c-6.58 2.72-12.78 12.14-20.32 6-.75-.69-2.9.33-2.62.54 2.46 1.7 2.71 6.33 7 5.52 7.15-1.36 11.74-6.36 15.95-12.06zm-66.07-56.83c1.32-1.78 2.58-2.81 4.74-.9 5.88 5.16 10.72 11.46 18.05 15 5.27 2.54 10.55 1.9 15.86 1.61 1.4-.08 2.8-.14 4.19-.1 5.69.13 9.57-2.71 14-5.44 2-1.27 5.38-.41 9.54-.55-5.59-2.72-10.11-2.12-13.33.49a35.53 35.53 0 0 1 -14.43 4.08c-20.62.87-33.1-21.75-45.7-37.94-2.14-2.27-2.24-5.1-2.09-7.86 2.27-16.25-2.71-37.68 13.11-48.18 15.76-12.78 20.76-33.39 40.31-42.81 4.66-3 6.21-7 3.47-11.31-5.58-14-11.51-27.9-19-40.8-9-15.69-20.28-29.85-35.81-40.76-1.79-2-3.45.67-1.5 1.85 26.55 24 30.89 53.66 16.82 82.44a102.86 102.86 0 0 1 -9.19 15.18c-3.94-16.72-14.69-30.07-27.95-40.18-3.83-2.84-9.13-.54-13.71-1.36-7.92-1.39-15.36-3.21-21.78-9a60.87 60.87 0 0 0 -10.76-7.17c-6.24-3.51-9-9.9-13.39-15-6.87-8-6.67-13.28-2-22.8 28-45.32 80.4-67.73 129.48-82.6 14.34-2.93 28.58-7.47 42.91-10.2 50.48-9 103.12 22.42 122.88 69.08 7.1 10.12 33.79 80.61 13.7 81.6-3.63-.71-8.28.4-9.82-5.28-2.18-8.11-5.23-15.93-10.39-22.74-3.79-3.2-6.9-21.31-11.34-19.84-1.73 1.12.18 2.27.76 3.29 17.23 27.15-3.6 41.6-1 65.32 14.72-15.71 14.21-12.44 32.59-15.79 4.35-1.72 10.35-3.74 14.27.72 8.78 10.16 19.06 18.49 29.49 26.85 13.07 19.66 9.35 45.38-.22 65.83-2.29 4.56-7.88 4.66-11.36 7.69-3.82 3.29-7.91 6-13.45 6.74 2.37 2.58 4.41 1.14 5.79.31 22.11-10.46 14.63-6.88 29-23.94 5.51-3.08 13.39 29.44 12.35 34.38-.88 6.57-7.45 7.43-9.71 16.44 5.25-5.25 5.94-7.57 12.39-10.51 5 1.67 1.46 12.76-2.57 14.47a295.77 295.77 0 0 1 -31.64 15.74c-6.28 1.37-14.1 10.43-15.88 16.89-1.09 4-4.3 7.15-4.52 11.7-.26 5.51 5.43 13.26 10.87 14.25 2.38.42 3 2.91 4.4 4.44 7.14 6.76 18.18 12.46 8.08 23-1.74.81-2.21-.51-2.62-1.5a19.77 19.77 0 0 0 -13.53-12c-4.73-1.38-7.34-6.25-12.21-9.1 4.59 6.1 9.33 10.8 15.72 13.73 6.25.71 13.64 22.37 5.36 20.1-2-2-4.65-2.75-7-4.11-5.61-3.19-2.54 6.08-5.66 7-7.12-2-5.12-13.55-7.89-19.25-1.77-5.09-6.17-7.78-9.29-13.41.18 8.21 7.72 11.7 7.51 18.7-19.15-15.44-16.32-22.68-12.06-45.68-3.73 8.05-4.74 14.95-5.59 23.44-1.32-4.71-2.22-7.95-3.53-12.62-.87 10.53 4.58 22.7 10.74 30.56 8 4.88 17.32 22.72 12.57 31.09-1.15.66-1.79-.7-2.6-1.28-7.86-7.35-11.7-3.68-15.32 6.42-8.12-15.72-26.15-28.38-16.8-47.66 1.34-4.93.6-10.07-.36-15.1-.73 6-.85 12.15-4.63 17.75-3-5.47-2.13-11.61-4.72-16.85-.06 15.76 2.73 30.4 10.61 44.35 2.32 2.86 19.46 34.15 6.68 28.27-5.63-7.84-15.23-12.79-19.8.64-1.85 4.82-1 10.18-3.23 14.52-7.3 0-8-5.58-10.18-10.94-7.26-17.46 7.3-33.3.33-50.73-2.85-7 2.47-17.8-6.43-21.67l1.25 10.9c-3-3.34-5.69-6.48-6.8-10.64-8.81-7.69 7.67 22.89 9.83 24 4.8 10.56-2.39 26.42-7.93 36-2.46 5-9.47 4.17-11.45 7.59-5.1-5.44-6.25-12-1.81-18.11 13.82-21 7.14-51.26-9.54-68.41-11.21-14.45 6-19.28 3.41-27.57-2.3 2.42-2.32 5.57-5.62 8.05-.43-2.66 1.48-10.62-1-11.06-1.28-.07-1.06 1.09-1 1.87.44 14.25-7.64 27.71-2.37 41.8 5.27 23-10.61 41.33-20.42 60.22-3.5 9-4.28 28.3 10.11 24.58 2.22-.35 4 .54 4.62 2.69s-1.79 1.9-2.59 2.87c-6 7.48-9.27-1.49-13.88-2.2-1.39-.21-2.56-1.92-4-2.18-14.23-4.76-12.66-30.47-1.22-38.42 8-7.35 7.81-17.58 4.92-27.83 3.39 2.81 6.35 3 9.72 2.7-36.11-32.4-49.11 24.84-87.99 11.79-1.42-.37-3.12.23-4.71.45-2.79.38-4.73-1.95-6.71-2.45-5.53-1.35-9.25-5.58-14.39-7.3-3.43-1.15-4.72-4.66-6.72-7.33-3.79-5.05-7.29-10.31-11.22-15.24s-4.89-9.49-1.13-14.86c7.29-10.08 11.97-21.38 16.06-32.91zm246.57.82c1.95-1.85-.21-3.84-1.93-1.89-6.86 6.07-13.55 12.06-20.61 17.46-3.92 10-2.75 19.8.07 29.73.21 1.29-.27 3.56 1.73 3.27 1.25-.18.62-2.2.62-3.45.05-5.19-1.21-10.38.59-15.55 3.06-17.46 6.75-18.67 19.53-29.57zm-141.46 5.18c8.36-3.24 20.56-.72 22.49-14.2-6.22-.35-8.85 6.57-13.87 8.71a103.35 103.35 0 0 1 -34.86 8c-2.5.48-4-.15-3.92 1.06s1.51.85 2.42.77c9.33-.81 19.06-.36 27.74-4.34z" fill="#fff"/><path d="m160.54 401.6c-3.14-4-5.81-8.33-9.45-13.67 7.59 4.23 12.78 8.74 16 15.22-2.79 2.31-5.04.36-6.55-1.55z" fill="#fb6660"/><path d="m150.09 400.44c-3.29-.47-12.26-14-12.07-18.77 4.19 6.54 8.13 12.62 12.07 18.77z" fill="#fb6660"/><path d="m141.44 384.19c4-.84 11.75 7.86 17.78 19.5-3.3.42-4.67-1.41-5-4.89-1.6 2.52-2.29 1.1-2.93.15-3.29-4.85-6.51-9.75-9.85-14.76z" fill="#fb6660"/><path d="m121.68 241.9c3.18 5.4 6.75 10.57 3.52 17.66-2.2-5.94-4.26-11.37-3.52-17.66z" fill="#fb6660"/><path d="m130.16 314.06c-4.82-9.4-9.11-17.79-13.42-26.2-1.77-3.45-.31-6.61 1-10.13 5.45 9.25 11 18 15.76 27.21.81 1.66-1.78 5.11-3.34 9.12z" fill="#fb6660"/><path d="m123.14 268.3c-2.69-1.87-3.41-7.2-1.35-12.36 2.01 4.12 3.9 8.06 1.35 12.36z" fill="#fb6660"/><path d="m133.3 300.62c-3.39-5.78-6.9-11.5-10.2-17.34l.92-.52c4.25 7.55 13.1 16.16 10.71 19.05-1.13.67-1.09-.63-1.43-1.19z" fill="#fb6660"/><path d="m44 113.76c3.55 17.92 8.37 35.47 20.87 49.16 10 7.42 16.8 6.36 22.58 19.93 9.55 17.08 19.83 33.69 30.26 50.2 2.69 4.22 1.67 8.88 1.6 13.25.67 21.39-8.46 40.9-13 61.28-40.47-20.22-54.88-51.89-61.7-94.75-1.68-11-9.27-20.15-9-31.73.52-22.8.13-45.81 8.39-67.34z" fill="#fff"/><g fill="#fb6660"><path d="m126.54 322.3c-3.87-7.77-7.6-14.64-10.7-21.79-2.67-4.44-5.55-7.64-1.33-13.14 5 9.46 10 18.49 14.57 27.74 1.1 2.26-1.6 4.16-2.54 7.19z"/><path d="m123.1 283.28c-1.45-2.56-2.87-5.14-4.21-7.76-1-2 .42-5.32.86-9.13 1.75 3.2 3.06 5.13 2.49 8-1 2.29 0 5.25 1.78 8.39z"/><path d="m123.47 331.13c-.38.78-1.49-.4-1.85-1-4.66-7.86-9-15.94-11.65-24.7-.94-3.07 1.55-5.72 1.34-9.57 5 9.79 9.81 18.61 14.1 27.67 1.17 2.47-.82 5.21-1.94 7.6z"/><path d="m97.33 157.66c4 .81 6.17 1.13 7.56 7.86 5.22 18.82 29.79 66.67 22.2 82.28-12.87-28.1-21.28-60.19-30.19-88.68z"/><path d="m86.3 153.07a27.32 27.32 0 0 0 11 4.59l-.43 1.46c-1.3.19-.65 1.32-.52 2 3.78 20.15 12.48 38.86 16.63 58.91-13.3-20.18-18.56-43.39-26.68-66.96z"/><path d="m114.34 369.69c-2.47-3.95-.29-5.31 1.55-7.51 1.74 7.79 13.1 16.37 10.28 23.7-5.69-4.1-8.23-10.44-11.83-16.19z"/><path d="m129.14 379.15c-3.79-.07-10.88-20.69-13.25-17-.71-2.35 1.24-3.59 2.1-5.53 3.68 4.52 13.21 17.58 11.15 22.53z"/><path d="m112 374.68c-1.22-1.75-.69-3.05.17-5.18 3.39 7.1 8 12.85 12.14 18.89.51.71.83 1.32-.28 1.81-.74.32-1.34 1-2.07-.18-3.27-5.15-6.5-10.32-9.96-15.34z"/><path d="m118.7 389.12c-4.19.9-9.49-7.5-8-13 2.82 4.56 5.39 8.75 8 13z"/><path d="m99.77 199.7c-6.12-8.36-21.58-44.66-21.61-50.79 9.73-.74 16.54 41.09 21.61 50.79z"/><path d="m91.5 301.81c10.64 4.28 15 25.23 21.54 35.12-4.49-4.33-19.91-29.51-21.54-35.12z"/><path d="m101.55 309c2.92-.74 4.21 5.91 7.87 1.13 2.93 6.1 5 12.65 8.87 17.92s3.61 9.23-.07 14.2c-4.98-11.35-12.16-21.63-16.67-33.25z"/><path d="m63.13 138.27c15.67 6.31 15.14 22 20.52 33.26-14.92-5.74-16.5-20.11-20.52-33.26z"/><path d="m98.16 317.72c-9.83-5.32-11.54-15.44-16.9-24 9.23 5.94 10.5 16.35 16.9 24z"/></g><path d="m30.17 189.44c17.13 27.4 17.72 60.86 30 90.25 7.2 22.81 66.24 54.55 54.06 78.62-4.35 8.19-7.69 16.7-6.08 26.94-9.4-6.07-17.65-12.34-21.2-23.17-4.77-12.71-13.73 2-27.63-22.43-13-19.14-14.4-43.3-24.09-64.09-5.94-15.14-9.56-30.83-13-46.62l-.69-3.16c-1.44-7 .24-13.45 2.58-19.69 2.02-5.57 4.64-11.01 6.05-16.65z" fill="#fff"/><path d="m84.32 304.72c-6.12-5.09-8.61-12.4-11.75-19.3 6.02 5.2 8.43 12.58 11.75 19.3z" fill="#fb6660"/><path d="m57.23 145.67c-3.36-7.52-7.8-14.54-8.53-23q4.3 11.5 8.53 23z" fill="#fb6660"/><path d="m74.63 294.52c-4.3-2.88-6-5.76-5-9.87 1.53 2.97 3.02 5.96 5 9.87z" fill="#fb6660"/><path d="m51.35 124.05c4.71 2.51 16.85 28.62 17.93 38.54-4.13-.96-17.28-29.3-17.93-38.54z" fill="#fb6660"/><path d="m69.68 284.5v.15a.43.43 0 0 0 0-.07l-.06-.12z"/><g fill="#fb6660"><path d="m69.54 284.46c-3.18-1-2.48-4.43-4.73-6.82 3.51 1.59 3.54 4.57 4.73 6.82z"/><path d="m65 281.85-.5.26-2.85-5.49.66-.26c.89 1.82 1.8 3.64 2.69 5.49z"/><path d="m40.69 107.15c-1.54 5.85-2.84 10.85-4.27 16.33-2.08-6.34-.14-11.2 4.27-16.33z"/><path d="m34.24 121.29c1.85 7.66-.56 15.25-.69 23.5-3.16-8.35-5.55-16.12.69-23.5z"/><path d="m32.31 161.39c-6.26-8.93-8-22.09-3.27-27.7.73 9.48 6.7 18.06 3.27 27.7z"/><path d="m30.39 176.22c-7.51-10.6-10.44-25.46-5.66-29.54 2.73 9.67 9.32 18.44 5.66 29.54z"/><path d="m41.15 304.75c-4.67-3.27-8.86-6.51-11.39-13.08 4.77 4.53 10.83 6.08 11.39 13.08z"/><path d="m21 157.54c1.36 11.47 12.52 20.1 6.48 32.74-7.71-8.57-11.28-25.19-6.48-32.74z"/><path d="m38.43 294.78c-4.44-.69-14.85-11.1-16.29-17.91 4.96 8.04 16.63 7.03 16.29 17.91z"/><path d="m34.49 282.54c-5 .77-14.26-8-17.23-17.3 6 6.59 17.61 5.81 17.23 17.3z"/><path d="m36.67 304.35c3.61 2.34 6.9 4.72 5.73 9.84a34.72 34.72 0 0 1 -5.73-9.84z"/><path d="m14.79 183.31c-1.3-1.59 1.42-6.5 2.31-9.93 1.76 6.48 13.48 20.54 6.83 25.37-1.07.77-1.8-1.79-2.63-2.88-2.84-3.76-3.3-8.67-6.51-12.56z"/><path d="m31.4 271.77c-9.09-5.47-18.65-8.49-20.09-19.76 4.55 3.16 8.75 7.2 13.79 9.25s4.46 5.88 6.3 10.51z"/><path d="m8.34 238.43c4.72 5.07 10.46 8.6 16.11 12.31 2.69 1.78 1.26 5.88 3.1 8.72-9.07-.96-21.1-14.2-19.21-21.03z"/><path d="m20.86 208.08c-1.37 1.18-2.39-1.65-3.34-2.89l-.92-1.26c-3.81-5.33-6.21-10.9-2-17.57 3.13 4.87 4.59 10.73 8.41 15.43.5.62.14 2.43-.57 4a6.79 6.79 0 0 1 -1.58 2.29z"/><path d="m21 234.13c-6.22-3.75-17.27-13.25-11.66-23.35.79 1.29 1.66 2.51 2.55 3.71 3.61 4.78 7.69 9.06 8.86 14.69a16.07 16.07 0 0 1 .25 4.95z"/></g><path d="m18.22 218.84c1.18-4.66.13-9.71-2.8-14.36l1.18-.55.92 1.26c.95 1.24 2 4.07 3.34 2.89a6.79 6.79 0 0 0 1.55-2.28l1.64.29c-2.34 6.24-4 12.65-2.58 19.69l.69 3.16-1.45.24c-1.17-5.63-5.25-9.91-8.86-14.69l1.44-1a35.52 35.52 0 0 0 4.93 5.35z" fill="#182a3d"/><path d="m18.22 218.84a35.52 35.52 0 0 1 -4.93-5.33c-3.2-4.38-4.3-9-1.74-13.81a27.88 27.88 0 0 1 3.87 4.78c2.93 4.65 3.98 9.7 2.8 14.36z" fill="#fb6660"/><path d="m425.65 318.38c1.87-4.78 5-8.22 4.35-13.46-2.36 4.18-5.79 7.5-4.35 13.46zm-11.45 3c2.73.94 2.25-1.24 1.62-3.59-.76 1.72-1.18 2.68-1.62 3.62zm4.26-13.38c-4.61.78-6.67 2.6-6.3 7.1 2.16-2.44 3.96-4.47 6.3-7.1zm-8.13 3.08c-6.76 1.24-3.22 6.8-5.21 10.86 4.5-2.94 5.96-6.38 5.21-10.88zm-27.6-176.29c-1.47 8.25-3 16.51-4.29 24.79 8.35 12.91 6.68-20.87 4.29-24.81zm21.46 179.39c-5.36 1.92-5.36 1.92-7.06 14.13 5.42.41 7.99-4.68 7.06-14.15zm-23.65-196.48c-4.88 10.73-6.55 23.53-8.63 35.29-.28 2 2.24 3.13 3.67 3.77 1.15.51 1.1-1.8 1.34-2.86 1.77-11.9 8.52-24.28 3.62-36.2zm16.63 200c-6.3 2.43-5.26 7.3-5.52 11.69-.1 1.72.62 1.68 1.64 1 4.62-3.21 1.71-8.39 3.88-12.7zm-37.17-215.33c-.94-16 7.79-32.69-5.11-44.28-.01 14.74-1.13 29.23 5.11 44.28zm30.19 222.33c-1.77 2.08-1.78 4.23-.38 7.83.19-3.53.28-5.68.38-7.83zm-21-243.16c-1 16.34-6.58 31.06-2.17 48.39 1.9-18.01 12.91-32.76 2.16-48.39zm6.52 17.53c-4.19 16.74-8.26 33.16-8 50.52 0 .9-1.26 2.15.8 2.57s1.93-1.09 2.07-2.1c1.57-12.11 5.24-23.69 8.15-35.49 1.27-5.25-.21-10.14-3.03-15.5zm-11.71-26.83c-.4 13.69-2.84 26.61-1.13 39.72.78-10.8 9.46-31.65 1.13-39.72zm22.09 270.66c1.65 4.61-2.75 10.69 3.57 14.59a32.1 32.1 0 0 0 -3.57-14.59zm-5.56-6.63c.63 5.62-3.39 15.26 3.55 17.7 1.79.46-.35-11.75 0-13.61-.26-1.64-1.66-7.96-3.55-4.09zm-34.23-290.93c.84 14.23-1.34 27.16 6.85 38.48-2.15-12.23 3.69-25.82-6.85-38.48zm32 303.67c.16-3.78.29-6.7.49-11.28-2.04 4.54-3.88 7.42-.5 11.27zm-.43 64.14a116.87 116.87 0 0 1 9.95 24.35c3.16-11.6 5.36-23.8 2.29-35.88-.59-2.56-4.28-3.8-7-4.18-1.82-.55-3 6.64-3 8.13.25 2.96-3.36 5.66-2.25 7.58zm-38.32-373.7c-1.91.85.21 5.73.33 7.64.77 4.4 2.52 8.91 2 13.13-.47 3.6 1.79 5.06 2.79 7.54-.62-6.32 3.42-27.65-5.12-28.31zm-6.27-5.69c-1 4.24 2.19 8.65 1.41 12.76-.58 4.74 3 6.68 4.84 9.77-1.13-5.29-1.14-20.71-6.25-22.53zm6.88 101.1c1 3.57 1.6 26 3.89 24.07 1.57-.54 4.4-1.31 3.93-3.6a79.21 79.21 0 0 0 -7.82-20.47zm-7.66-89.76c1.23-6.82-2.94-15.5-8.16-16.41 1.85 6.11 2.12 12.59 8.16 16.41zm4.5 85.61c-.26 2.72-2.23 33.78 1.06 31.86 1.59-.22 3.71-.89 3.29-3.66-1.15-7.46-1.95-15-3.34-22.37-.35-1.88 2.25-4.34-1.01-5.83zm-19.18-104.87c2.26 3.49 3.55 5.47 4.85 7.46.04-2.94-.99-5.13-4.85-7.46zm16.24 123.91c-2.69 5.74-1.76 11.45-2.22 17.24 3.84-1.41 4.77-9.56 2.22-17.24zm-4.39 13.57c-.81 2.38-1.82 4.63-1.25 7.25 2.28-.96 2.82-4.38 1.25-7.25zm-4.88 288.09c1 7.27 4.37 17.9 12.85 10.84 4-3.57 10.18-7.3 8.08-13.32-6.87-32.68-21.44-30.23-20.93 2.48zm-69.74 13.13c5.41 2.37 6.77.58 5.91-7.36-2.66 1.76-4.02 4.67-5.91 7.36zm15.37-125c2.37 24.83 5.31 40.38-10.24 62.49-6.08 9.05-11.79 18.06-9.77 29.67.42 2.36 1.06 5 4.42 3.87 10.33-3.29 16.45 1.95 19.87 11.54 12.63-25.15.68-21.94 8.07-39.14 15.85-21.13 6.43-52.12-12.35-68.39zm-17.11 109.59c-3.26.7-6.88-1.54-8 1s-.84 5.43-3.49 7.8c-3.67-4.7 1.18-12.8-6.37-15.26-3.6 13.13-6.62 16.67 17.85 20.34.79-4.49-3.7-8.63.01-13.88zm-14.31-46.62c3.48-4 5.92-7.57 6.89-12-2.62 3.49-8.56 5.1-6.89 12zm-1.68-5.51c1.73-6.1 10.51-6.86 7.59-14.61-3.38 3.68-6.63 7.25-9.9 10.81 1.6.69 1.6.69 2.31 3.8zm-16.55-12c4.83-.84 13.35-9.73 13.75-14-7.41 1.91-8.15 9.76-13.75 14zm11.86 6c.81.8 1.19.05 1.67-.4 2.82-2.89 5.52-5.88 8.46-8.63 1.88-1.76 2.5-3.33.66-5.34-1.59 2.96-12.77 12.28-10.79 14.46zm4.91-19.26c-3.55 3.58-6.19 8.59-9.4 12.56-.82 1.11-.85 1.85.23 2.79 2.86 2.95 10.59-8.64 12.6-10.88.57-.85 1.64-1.31.7-2.57s-1.59-2.48-4.13-1.81zm-20.3 52.41c2 .21.58 2.11.84 3.27a15.25 15.25 0 0 1 .21 3.94c-.72 4.57 5.72 8.89 8.59 4.78 7.64-10.31-1.45-19.19 9.31-30.64 3.54-6-6.48-11.72-10.46-14.73-6.86-5.41-9.93 22.84-12.56 27.39-1.26 4.34-2.37 8.52 1.91 12.47-.08-1.89 1.25-5.82 2.16-6.39zm-4.65 24.13c1.45 4 6.46 2.67 9.69 3.55 5.1 1.63 8.18.33 8.67-5.37-.09-1.58 1.35-3.43.14-4.75-2.68 1.95-6.65 2.28-6.8 6.59-3.64-1.09-6.15-4.16-7.27-7.92-2.72 2.4-5.64 4.26-4.43 7.99zm-33-54.39c1.45 3.53 3.35 2.43 5.9.48-2.27-.09-4-.25-5.88-.37zm-10.68-1.85c4 7.39 6.71 8.67 10.4 5.41-2.07-3.96-6.37-3.64-10.38-5.32zm-26.91-190.43c3.89 5.18 8.77-1.91 13.45-1.94 4.44-.36-7.45-12.37-7.75-15.61-5 5.76-4.86 7.49 1.88 15.76-5.26-.71-5.64-8.62-7.61-6.29-2.31 2.47-1.54 5.3.03 8.08zm4 8.41c-2.27 3.42 1.49 5.28 3.07 7.64 5.07 3.39 15.66-21.25 21.78-24.36-4.29 1.4-6 7.52-10.79 5.76-.31-.14-1.46.53-.71 1.41.28.33 1.09.38.52 1-1.64 1.18-4.25-.49-5.32 1.77-.91 1.31 1 1.73 1.28 2.71.2.57 1.48.91.64 1.66s-1.3-.4-1.92-.71c-1.13-.55-1.3-3.34-3.47-1.42-3.58 2.92 3 6.34 1.38 7.62-2.17 1.27-3.22-6.79-6.46-3.1zm3.92 9.32c-3.69-.72-4.19-4.45-6.44-6.75-3.24 3.86-.46 6.67 1.13 9.68 2.05 2.27 5.04-.61 5.39-2.93zm19.53 182.44c8.09-.12-4.24-9.84-7.06-9.39 1.17 4.02 5.12 5.95 7.1 9.39zm-18.4-13.85c3.64 5.34 6.31 9.69 9.45 13.67 1.51 1.91 3.76 3.86 6.53 1.55-3.16-6.48-8.35-10.99-15.94-15.22zm-27.81-200.82c1.3 6 8.73 23.54 10.86 25.22-.75-9.89.58-20.48-10.86-25.22zm36 216.58c-6-11.64-13.75-20.34-17.78-19.5 3.34 5 6.57 9.91 9.85 14.76.64.95 1.33 2.37 2.93-.15.31 3.48 1.68 5.31 4.98 4.89zm-9.13-3.25c-3.94-6.15-7.88-12.23-12.07-18.77-.21 4.75 8.76 18.33 12.05 18.77zm-28.43-158.54c-.74 6.29 1.28 11.72 3.52 17.66 3.23-7.09-.34-12.26-3.52-17.66zm.11 14c-2.06 5.16-1.34 10.49 1.35 12.36 2.55-4.26.66-8.2-1.35-12.32zm.45 18.43c.57-2.85-.74-4.78-2.49-8-.44 3.81-1.9 7.11-.86 9.13 1.34 2.62 2.76 5.2 4.21 7.76 3.3 5.84 6.81 11.56 10.2 17.34.34.56.3 1.86 1.43 1.19 2.39-2.89-6.46-11.5-10.71-19.05-1.77-3.08-2.74-6.04-1.78-8.33zm-17.42-114.79c7.72 24.61 16.89 48.92 25.71 73.19.66-5.36 4.91-10.36 2.83-15.26-7.25-17.17-13.23-34.85-21.47-51.6-.44-.89-1.72-2.28-.31-2.89 2.29-.92 6.63 14.66 9 18.77-.95-15.75-4.73-20.84-15.76-22.21zm11.92 128.32c4.31 8.41 8.6 16.8 13.42 26.2 1.56-4 4.15-7.46 3.3-9.12-4.73-9.19-10.31-18-15.76-27.21-1.27 3.52-2.7 6.68-.96 10.13zm-2.23-.49c-4.22 5.5-1.34 8.7 1.33 13.14 3.1 7.15 6.83 14 10.7 21.79.94-3 3.64-4.93 2.54-7.19-4.57-9.25-9.55-18.28-14.57-27.74zm-3.2 8.49c.21 3.85-2.28 6.5-1.34 9.57 2.7 8.76 7 16.84 11.65 24.7.36.6 1.47 1.78 1.85 1 1.12-2.39 3.11-5.14 1.94-7.6-4.29-9.06-9.07-17.88-14.1-27.67zm-.64 80.22c-1.46 5.54 3.84 13.94 8 13-2.58-4.21-5.15-8.4-8-13zm13.63 12.31c-4.13-6-8.75-11.79-12.14-18.89-.86 2.13-1.39 3.43-.17 5.18 3.47 5 6.7 10.19 10 15.34.73 1.16 1.33.5 2.07.18 1.07-.49.75-1.1.24-1.81zm-10-18.7c3.6 5.75 6.14 12.09 11.83 16.19 2.82-7.33-8.54-15.91-10.28-23.7 2.37-3.72 9.46 16.9 13.25 17 2.06-4.95-7.47-18-11.15-22.5-.86 1.94-2.81 3.18-2.1 5.53-1.8 2.17-3.98 3.53-1.51 7.48zm-28-216.62c8.12 23.57 13.38 46.78 26.71 67-4.15-20.05-12.85-38.76-16.63-58.91-.13-.73-.78-1.86.52-2 8.91 28.49 17.32 60.58 30.19 88.68 7.59-15.61-17-63.46-22.2-82.28-1.39-6.73-3.57-7.05-7.56-7.86a27.32 27.32 0 0 1 -11.03-4.63zm15.25 155.93c4.51 11.67 11.69 21.95 16.67 33.25 3.68-5 3.82-9.07.07-14.2s-5.94-11.82-8.87-17.92c-3.66 4.73-4.95-1.92-7.87-1.13zm-23.39-160c0 6.13 15.49 42.43 21.61 50.79-5.07-9.79-11.88-51.62-21.61-50.88zm34.88 188c-6.58-9.89-10.9-30.84-21.54-35.12 1.63 5.54 17.05 30.72 21.5 35.05zm-31.78-43.29c5.36 8.57 7.07 18.69 16.9 24-6.4-7.64-7.67-18.05-16.9-24zm2.39-122.18c-5.38-11.3-4.85-26.95-20.52-33.26 4.02 13.15 5.6 27.52 20.52 33.26zm-11.08 113.89c3.14 6.9 5.63 14.21 11.75 19.3-3.32-6.72-5.73-14.1-11.75-19.3zm-20.77-164.63c4.35 5.06 7.15 11.45 13.39 15a60.87 60.87 0 0 1 10.81 7.13c6.42 5.8 13.86 7.62 21.78 9 4.58.82 9.88-1.48 13.71 1.36 13.26 10.11 24 23.46 27.95 40.18a102.86 102.86 0 0 0 9.19-15.18l.68.33a4.94 4.94 0 0 0 -.53 4.22c1.46 3.5 4.12 6.47 5.87 9.89 2.89 5.68 6.49 3.91 10.36 1.44.55-.36.81-.69.33-1.33q-5.1-7.17-10.16-14.34c-.48-.67-1.85-1.4-.84-2.17 4.43-.25 9.45 20.87 16.32 14.13 2.15-2.09-.72-2.72-1.51-3.73-4.13-5.95-10.79-12.44-11-19.87.74-.44 1.08.3 1.23.94a29 29 0 0 0 6.34 12c3.18 3.83 4.52 12.16 12.77 6.82a5.33 5.33 0 0 0 2.47-.1c-2.49-3.77-5.24-7.38-7.95-11l.77-.39a53.65 53.65 0 0 0 9.22 9.88c10.6-6.27-5.14-16.86-8.18-23.7-3.72-5.46-7.33-11-11.14-16.78l1.27-.84c4.39 6.67 9.54 12.88 14.08 19.48-1.74-13.28-6.58-18.18-12.27-24l1.23-.61a9.52 9.52 0 0 0 2.52 2.11 48.43 48.43 0 0 0 -2.64-5.18l1.16-.67c7.44 12.9 13.37 26.83 19 40.8 2.74 4.34 1.19 8.33-3.47 11.31-19.6 9.42-24.55 30-40.36 42.84-15.82 10.5-10.84 31.93-13.11 48.18-.15 2.76-.05 5.59 2.09 7.86 12.6 16.19 25.08 38.81 45.7 37.94l.08 1.52c-5.31.29-10.59.93-15.86-1.61-7.33-3.57-12.17-9.87-18.05-15-2.16-1.91-3.42-.88-4.74.9-4.09 11.55-8.77 22.83-16.06 32.91-3.76 5.37-2.69 10 1.13 14.86s7.43 10.19 11.22 15.24c2 2.67 3.29 6.18 6.72 7.33 5.14 1.72 8.86 5.95 14.39 7.3 2 .5 3.92 2.83 6.71 2.45 1.59-.22 3.29-.82 4.71-.45 38.87 12.97 51.87-44.27 88.05-11.82-3.37.26-6.33.11-9.72-2.7 2.89 10.25 3.11 20.48-4.92 27.83-11.44 7.95-13 33.66 1.22 38.42 1.41.26 2.58 2 4 2.18 4.61.71 7.92 9.68 13.88 2.2.8-1 3.16-.84 2.59-2.87s-2.4-3-4.62-2.69c-14.39 3.72-13.61-15.62-10.11-24.58 9.81-18.89 25.69-37.26 20.42-60.22-5.27-14.09 2.81-27.55 2.37-41.8 0-.78-.24-1.94 1-1.87 2.44.44.53 8.4 1 11.06 3.3-2.48 3.32-5.63 5.62-8.05 2.59 8.29-14.62 13.12-3.41 27.57 16.68 17.15 23.36 47.44 9.54 68.41-4.44 6.12-3.29 12.67 1.81 18.11 2-3.42 9-2.62 11.45-7.59 5.54-9.62 12.73-25.48 7.93-36-2.16-1.15-18.64-31.73-9.83-24 1.11 4.16 3.82 7.3 6.8 10.64l-1.25-10.9c8.9 3.87 3.58 14.63 6.43 21.67 7 17.43-7.59 33.27-.33 50.73 2.16 5.36 2.88 10.92 10.18 10.94 2.19-4.34 1.38-9.7 3.23-14.52 4.57-13.43 14.17-8.48 19.8-.64 12.78 5.88-4.36-25.41-6.68-28.27-7.88-14-10.67-28.59-10.61-44.35 2.59 5.24 1.7 11.38 4.72 16.85 3.78-5.6 3.9-11.73 4.63-17.75 1 5 1.7 10.17.36 15.1-9.35 19.28 8.68 31.94 16.8 47.66 3.62-10.1 7.46-13.77 15.32-6.42.81.58 1.45 1.94 2.6 1.28 4.75-8.37-4.58-26.21-12.57-31.09-6.16-7.86-11.61-20-10.74-30.56 1.31 4.67 2.21 7.91 3.53 12.62.85-8.49 1.86-15.39 5.59-23.44-4.26 23-7.09 30.24 12.06 45.68.21-7-7.33-10.49-7.51-18.7 3.12 5.63 7.52 8.32 9.29 13.41 2.77 5.7.77 17.25 7.89 19.25 3.12-.89 0-10.16 5.66-7 2.33 1.36 4.94 2.12 7 4.11 8.28 2.27.89-19.39-5.36-20.1-6.39-2.93-11.13-7.63-15.72-13.73 4.87 2.85 7.48 7.72 12.21 9.1a19.77 19.77 0 0 1 13.53 12c.41 1 .88 2.31 2.62 1.5 10.1-10.52-.94-16.22-8.08-23-1.38-1.53-2-4-4.4-4.44-5.44-1-11.13-8.74-10.87-14.25.22-4.55 3.43-7.72 4.52-11.7 1.78-6.46 9.6-15.52 15.88-16.89a295.77 295.77 0 0 0 31.64-15.74c4-1.71 7.59-12.8 2.57-14.47-6.45 2.94-7.14 5.26-12.39 10.51 2.26-9 8.83-9.87 9.71-16.44 1-4.94-6.84-37.46-12.35-34.38-14.34 17.06-6.86 13.48-29 23.94-1.38.83-3.42 2.27-5.79-.31 5.54-.77 9.63-3.45 13.45-6.74 3.48-3 9.07-3.13 11.36-7.69 9.57-20.45 13.29-46.17.22-65.83-10.43-8.36-20.71-16.69-29.49-26.85-3.92-4.46-9.92-2.44-14.27-.72-18.38 3.35-17.87.08-32.59 15.79-2.61-23.72 18.22-38.17 1-65.32-.58-1-2.49-2.17-.76-3.29 4.44-1.47 7.55 16.64 11.34 19.84 5.16 6.81 8.21 14.63 10.39 22.74 1.54 5.68 6.19 4.57 9.82 5.28 20.09-1-6.6-71.48-13.7-81.6-19.76-46.66-72.4-78-122.88-69.08-14.33 2.73-28.57 7.27-42.91 10.2-49.11 14.85-101.53 37.26-129.51 82.59-4.66 9.51-4.86 14.8 2.01 22.79zm17.48 41.8c-1.08-9.92-13.22-36-17.93-38.54.65 9.24 13.8 37.58 17.93 38.54zm-12.05-16.92q-4.26-11.5-8.53-23c.73 8.46 5.17 15.48 8.53 23zm7.77 136.18c-.89-1.85-1.8-3.67-2.69-5.49l-.66.26 2.85 5.49zm-.19-4.21c2.25 2.39 1.55 5.86 4.73 6.82l.06.12a.43.43 0 0 1 0 .07c-1 4.11.69 7 5 9.87-2-3.91-3.47-6.9-5-9.87 0 0 0-.1 0-.15h-.14c-1.11-2.29-1.14-5.27-4.65-6.86zm-28.39-154.16c1.43-5.48 2.73-10.49 4.27-16.33-4.41 5.13-6.35 9.99-4.27 16.33zm8.19 89.35c6.82 42.86 21.23 74.53 61.7 94.75 4.56-20.38 13.69-39.89 13-61.28.07-4.37 1.09-9-1.6-13.25-10.41-16.51-20.71-33.12-30.24-50.2-5.78-13.57-12.53-12.51-22.58-19.93-12.5-13.69-17.32-31.24-20.89-49.16-8.28 21.53-7.89 44.54-8.39 67.34-.27 11.58 7.32 20.74 9 31.73zm-10.37-91.54c-6.22 7.38-3.85 15.15-.69 23.5.13-8.25 2.54-15.79.69-23.5zm-5.24 12.4c-4.69 5.61-3 18.77 3.27 27.7 3.47-9.64-2.5-18.22-3.27-27.7zm-4.31 13c-4.78 4.08-1.85 18.94 5.66 29.54 3.7-11.11-2.89-19.88-5.62-29.55zm11.98 157.66a34.72 34.72 0 0 0 5.73 9.84c1.17-5.12-2.12-7.5-5.73-9.84zm-15.67-146.81c-4.82 7.55-1.25 24.17 6.48 32.74 6.06-12.64-5.1-21.28-6.48-32.74zm8.74 134.13c2.53 6.57 6.72 9.81 11.39 13.08-.54-7-6.6-8.55-11.37-13.08zm-12.64-118.29c-.89 3.43-3.61 8.34-2.31 9.93 3.21 3.89 3.67 8.8 6.51 12.56.83 1.09 1.56 3.65 2.63 2.88 6.65-4.83-5.07-18.89-6.83-25.37zm5 103.49c1.44 6.81 11.85 17.22 16.29 17.91.38-10.88-11.29-9.87-16.25-17.91zm-12.8-66.09c-5.61 10.1 5.44 19.6 11.66 23.35a16.07 16.07 0 0 0 -.25-4.95l1.45-.24c3.48 15.79 7.1 31.48 13 46.62 9.69 20.79 11.07 44.95 24.09 64.09 13.9 24.45 22.86 9.72 27.63 22.43 3.55 10.83 11.8 17.1 21.2 23.17-1.61-10.24 1.73-18.75 6.08-26.94 12.18-24.07-46.86-55.81-54.06-78.62-12.25-29.39-12.84-62.85-30-90.25-1.41 5.64-4 11.08-6.12 16.65l-1.64-.29c.71-1.58 1.07-3.39.57-4-3.82-4.7-5.28-10.56-8.41-15.43-4.18 6.67-1.78 12.24 2 17.57l-1.18.55a27.88 27.88 0 0 0 -3.87-4.78c-2.56 4.84-1.46 9.43 1.74 13.81l-1.44 1c-.75-1.23-1.66-2.45-2.45-3.74zm8 54.46c3 9.27 12.22 18.07 17.23 17.3.34-11.49-11.27-10.71-17.27-17.3zm7.84-4c-5-2.05-9.24-6.09-13.79-9.25 1.44 11.27 11 14.29 20.09 19.76-1.88-4.61-1.35-8.48-6.34-10.49zm-1.41-14.74c-.4-10.7-10.59-14.12-15.36-21.82-3.86 7.65 5.46 20.37 15.36 21.82zm.72 4.24c-5.65-3.74-11.39-7.24-16.11-12.31-1.89 6.83 10.14 20.07 19.21 21-1.84-2.81-.41-6.91-3.1-8.69zm418 18.83q.88 7.94 1.79 15.87c-1.48 6.1-2.45 12.28-4.53 18.25-.86 2.47-3.46 2.64-4.19 4.75-3.42 10.08-10.44 16.23-20.7 18.61-5.61 2-19.85 4.55-21.87 10.39-1 8.64-1.24 17.25 2.14 25.52 8.65 9.42 12.94 13.83 6.53 26.18-9.74 18.24-2.35 39.27-12.27 57.15-6.6 3.21-3.76-31.52-27.81-25.09-21 6.1-7.45 26.78-10.69 41.15-.41 1.46-1 1.81-2.34 1.41-4.78-1.46-6.52 2.57-9.56 4.78-6 4.34-14.37 1.6-15.68-5.55-1.94-10.71-7.94-15.89-18-18.57-6.81-1.61-11.83-7.74-17.57.11-9.08 12-23.12 4-23 15.93-.23 2.9.19 6.79-2.23 7.7-3.36 1.27-7.08 2.39-11.35 0-6.5-4.08-17.09-1.33-21.14-9.33-4.61-5.24-14.76-.49-19.57-6.39-4.63-7 4.18-15.15-1.84-22.5-2-2.77 0-5.92.59-8.8 1.73-8 3.81-15.84 5.54-23.78.87-3.91-2.21-6.75-4.19-9.27-.93-1.21-4.94.39-7.63 1.46-23.83 10.24-41.73 31.66-67.68 13.56-33.85-11-66.62-28.76-82.64-61.56-20.48-30.08-35.47-63.48-51-96.3-5.44-18 5-38.25 7.1-56.49a376.3 376.3 0 0 1 17.49-57.37c1-2.61 2.33-5.17 1.23-8s2.09-1.78 2.7-3.1a127.79 127.79 0 0 1 5.52-11.65c19.54-36.25 57-59.38 92.21-78.71 49.52-18.13 108.35-44.93 159.59-19.5 17.88 8.23 39 11 54.6 23.56 17 17.6 28 41 37.9 63.25 12.34 22.8 12 48.22 18.46 72.63 7.32 19 19.15 36.81 15.75 58.31-.9 5.21 1.48 9.71 4.39 14.45 6.57 10.37 15.31 18.48 23.91 26.94zm-18.66 43.28c.35-1-1.12-1.38-1.5-1.14-2.25 1.42-4.34 3.14-4 6.19.11 1 .09 2.65 1.57 2.13 4.96-.79 3.04-4.69 3.89-7.18zm-201.19 67.31 4.05-6c-.23-.14-.44-.29-.67-.45-1.37 2-2.73 4-4.07 6zm-85-152.35c4.32-1.76 6.91-3.72 2.77-8.48-.93 2.92-1.77 5.52-2.74 8.48z" fill="#182a3d"/><path d="m8.37 224.68c4.77 7.7 15 11.12 15.36 21.82-9.9-1.45-19.22-14.17-15.36-21.82z" fill="#fb6660"/></svg>