<svg xmlns="http://www.w3.org/2000/svg" width="230.9" height="256" viewBox="0 0 230.9 256"><g fill="#fff"><path d="M104 101.3v42.1c-56-2-52.5 45.2-30.7 56-41.9-19-27.7-71 18.7-66.1l.4-32z"/><path d="M171.3 92.3l-1.4 2.6s-.3 76.6-.1 90.5-38.4 107.4-124.6 49.5c68.4 26.3 100.9-16 110.9-50.4a44 44 0 0 0 1.9-13V84.4c2.1 2 6.7 5 13.3 7.9z"/><path d="M226.3 70v42.3c-20.4 2.9-56.4-17.4-56.4-17.4l1.4-2.6a111.6 111.6 0 0 0 42.3 9.5L214 70zm-68.6-57.3h12.5c-1.5 8.5-.2 26.5 12.9 37.9-12.7-7.4-24.4-27.8-25.4-37.9z"/></g><path fill="none" stroke="#fff" stroke-miterlimit="10" stroke-width="3" d="M183.1 50.6c6.8 5.8 16.7 9.9 30.9 10V70h12.3v42.3c-20.4 2.9-56.4-17.4-56.4-17.4s-.3 76.6-.1 90.5-38.4 107.4-124.6 49.5l-6.3-4.4c-78.5-57.9-5.2-153.6 53.5-138.1v8.9H104v42.1c-56-2-52.5 45.2-30.7 56 10.2 5 24.5 2.1 38.6-17.6a15.2 15.2 0 0 0 2.7-8.7l.9-168.6h42.2v8.2h12.5c-1.5 8.5-.2 26.5 12.9 37.9"/><path fill="none" stroke="#fff" stroke-miterlimit="10" stroke-width="3" d="M92.4 101.3l-.4 32c-46.4-4.9-60.6 47.1-18.7 66.1l1.1.5m83.3-187.2c1 10.1 12.7 30.5 25.4 37.9"/><path fill="none" stroke="#fff" stroke-miterlimit="10" stroke-width="3" d="M214 70l-.4 31.8a111.6 111.6 0 0 1-42.3-9.5c-6.6-2.9-11.2-5.9-13.3-7.9v87.1a44 44 0 0 1-1.9 13c-10 34.4-42.5 76.7-110.9 50.4"/></svg>